<svg id="visual" viewBox="0 0 900 600" width="900" height="600" xmlns="http://www.w3.org/2000/svg" xmlns:xlink="http://www.w3.org/1999/xlink" version="1.1"><rect x="0" y="0" width="900" height="600" fill="#1b1b1b"></rect><path d="M0 377L21.5 373.7C43 370.3 86 363.7 128.8 362.3C171.7 361 214.3 365 257.2 363.7C300 362.3 343 355.7 385.8 360.2C428.7 364.7 471.3 380.3 514.2 395.8C557 411.3 600 426.7 642.8 424.2C685.7 421.7 728.3 401.3 771.2 386.2C814 371 857 361 878.5 356L900 351L900 601L878.5 601C857 601 814 601 771.2 601C728.3 601 685.7 601 642.8 601C600 601 557 601 514.2 601C471.3 601 428.7 601 385.8 601C343 601 300 601 257.2 601C214.3 601 171.7 601 128.8 601C86 601 43 601 21.5 601L0 601Z" fill="#350e47"></path><path d="M0 432L21.5 435C43 438 86 444 128.8 449.2C171.7 454.3 214.3 458.7 257.2 450.5C300 442.3 343 421.7 385.8 422.2C428.7 422.7 471.3 444.3 514.2 456.5C557 468.7 600 471.3 642.8 461.3C685.7 451.3 728.3 428.7 771.2 423.7C814 418.7 857 431.3 878.5 437.7L900 444L900 601L878.5 601C857 601 814 601 771.2 601C728.3 601 685.7 601 642.8 601C600 601 557 601 514.2 601C471.3 601 428.7 601 385.8 601C343 601 300 601 257.2 601C214.3 601 171.7 601 128.8 601C86 601 43 601 21.5 601L0 601Z" fill="#6a0b58"></path><path d="M0 487L21.5 490C43 493 86 499 128.8 492.3C171.7 485.7 214.3 466.3 257.2 455.5C300 444.7 343 442.3 385.8 444.5C428.7 446.7 471.3 453.3 514.2 464.2C557 475 600 490 642.8 492.8C685.7 495.7 728.3 486.3 771.2 486.2C814 486 857 495 878.5 499.5L900 504L900 601L878.5 601C857 601 814 601 771.2 601C728.3 601 685.7 601 642.8 601C600 601 557 601 514.2 601C471.3 601 428.7 601 385.8 601C343 601 300 601 257.2 601C214.3 601 171.7 601 128.8 601C86 601 43 601 21.5 601L0 601Z" fill="#a0005e"></path><path d="M0 499L21.5 505C43 511 86 523 128.8 527.2C171.7 531.3 214.3 527.7 257.2 524.8C300 522 343 520 385.8 519.2C428.7 518.3 471.3 518.7 514.2 521.3C557 524 600 529 642.8 532.2C685.7 535.3 728.3 536.7 771.2 528.5C814 520.3 857 502.7 878.5 493.8L900 485L900 601L878.5 601C857 601 814 601 771.2 601C728.3 601 685.7 601 642.8 601C600 601 557 601 514.2 601C471.3 601 428.7 601 385.8 601C343 601 300 601 257.2 601C214.3 601 171.7 601 128.8 601C86 601 43 601 21.5 601L0 601Z" fill="#d30056"></path><path d="M0 566L21.5 565.2C43 564.3 86 562.7 128.8 558.5C171.7 554.3 214.3 547.7 257.2 549.5C300 551.3 343 561.7 385.8 560C428.7 558.3 471.3 544.7 514.2 543.7C557 542.7 600 554.3 642.8 554C685.7 553.7 728.3 541.3 771.2 534.7C814 528 857 527 878.5 526.5L900 526L900 601L878.5 601C857 601 814 601 771.2 601C728.3 601 685.7 601 642.8 601C600 601 557 601 514.2 601C471.3 601 428.7 601 385.8 601C343 601 300 601 257.2 601C214.3 601 171.7 601 128.8 601C86 601 43 601 21.5 601L0 601Z" fill="#ff0340"></path></svg>